<mxfile host="app.diagrams.net" modified="2023-06-13T18:05:03.736Z" agent="Mozilla/5.0 (X11; Ubuntu; Linux x86_64; rv:109.0) Gecko/20100101 Firefox/114.0" version="21.1.2" etag="xznc13ojWQ5lrq5hwkU2" type="github">
  <diagram name="Page-1" id="bhFTTE4U6HHQqo8OBmXR">
    <mxGraphModel>
      <root>
        <mxCell id="0" />
        <mxCell id="1" parent="0" />
      </root>
    </mxGraphModel>
  </diagram>
</mxfile>
